<svg width="18" height="19" viewBox="0 0 18 19" fill="none" xmlns="http://www.w3.org/2000/svg">
<g clip-path="url(#clip0_1440_11143)">
<path d="M3.28669 0.456055C1.46601 0.456055 0 1.92206 0 3.74274V15.1694C0 16.99 1.46601 18.456 3.28669 18.456H9.47981V11.4192H7.61906V8.88567H9.47981V6.72118C9.47981 5.02063 10.5792 3.45924 13.1119 3.45924C14.1373 3.45924 14.8955 3.55768 14.8955 3.55768L14.8359 5.92356C14.8359 5.92356 14.0626 5.91625 13.2187 5.91625C12.3054 5.91625 12.159 6.33706 12.159 7.03564V8.88569H14.9085L14.7887 11.4192H12.159V18.4561H14.7133C16.534 18.4561 18 16.99 18 15.1694V3.74276C18 1.92208 16.534 0.456073 14.7133 0.456073H3.28667L3.28669 0.456055Z" fill="#504B49"/>
</g>
<defs>
<clipPath id="clip0_1440_11143">
<rect width="18" height="18" fill="white" transform="translate(0 0.456055)"/>
</clipPath>
</defs>
</svg>
