<svg width="111" height="110" viewBox="0 0 111 110" fill="none" xmlns="http://www.w3.org/2000/svg">
<g filter="url(#filter0_dd_1440_10807)">
<rect x="14.1309" y="7.07303" width="82.7434" height="82.7434" rx="20" fill="white"/>
</g>
<path d="M45.2749 71.4947L46.5423 70.7626L37.4403 65.5047L36.1729 66.2367L45.2749 71.4947Z" fill="#E3A05D"/>
<path d="M36.3145 63.1706L37.5819 62.4386V65.5883L36.3145 66.3162V63.1706Z" fill="#B5562A"/>
<path d="M45.7821 71.198L46.5434 70.763L37.5836 65.5887L36.8223 66.0238L45.7821 71.198Z" fill="#E6D1C1"/>
<path d="M37.584 52.1994V65.5889L46.548 70.7631V57.3736L37.584 52.1994ZM38.2156 53.379L45.8452 57.7836V69.5376L38.2156 65.1329V53.379Z" fill="#704B3C"/>
<path d="M46.3462 69.2448L38.7207 64.8402V53.0862L46.3462 57.4908V69.2448Z" fill="#76787A"/>
<path d="M38.2148 65.133L38.721 64.8402L46.3464 69.2448L45.8403 69.5377L38.2148 65.133Z" fill="#704332"/>
<path d="M38.2148 65.133L38.721 64.8402V53.0862L38.2148 53.379V65.133Z" fill="#493127"/>
<path d="M36.8223 52.6344L37.5836 52.1994V65.5889L36.8223 66.0239V52.6344Z" fill="#B8977D"/>
<path d="M36.8223 62.878L37.5836 62.4388V65.5886L36.8223 66.0236V62.878Z" fill="#B8977D"/>
<path d="M34.7685 57.0633L30 59.8156L30.7613 60.2548L35.5298 57.5025L34.7685 57.0633Z" fill="#FFB774"/>
<path d="M67.9136 52.8804L67.1523 52.4412V65.8307L67.9136 66.2699V52.8804Z" fill="#B8977D"/>
<path d="M68.4198 63.413L67.1523 62.681V65.8308L68.4198 66.5628V63.413Z" fill="#B5562A"/>
<path d="M67.9136 52.8804L67.1523 52.4412V65.8307L67.9136 66.2699V52.8804Z" fill="#B8977D"/>
<path d="M56.8534 73.2386L55.5859 72.5066L67.1517 65.8307L68.4191 66.5627L56.8534 73.2386Z" fill="#E3A05D"/>
<path d="M56.3472 72.9458L55.5859 72.5066L67.1517 65.8307L67.913 66.2699L56.3472 72.9458Z" fill="#E6D1C1"/>
<path d="M76.6981 50.2702L75.9326 49.831V57.6112L76.6981 58.0504V50.2702Z" fill="#B8977D"/>
<path d="M79.6587 54.5327L81.2232 55.4362L80.4619 55.8754L78.8975 54.9719L79.6587 54.5327Z" fill="#FFB774"/>
<path d="M55.5879 59.1169V72.5064L67.1536 65.8305V52.441L55.5879 59.1169ZM66.522 65.3745L56.2906 71.2808V59.5268L66.522 53.6206V65.3745Z" fill="#754F3F"/>
<path d="M55.7881 70.9921L66.0153 65.0859V53.3319L55.7881 59.2382V70.9921Z" fill="#76787A"/>
<path d="M66.5214 65.3745L66.0153 65.0859L55.7881 70.9922L56.2942 71.2808L66.5214 65.3745Z" fill="#704332"/>
<path d="M66.5218 65.3745L66.0156 65.0859V53.3319L66.5218 53.6247V65.3745Z" fill="#493127"/>
<path d="M70.7666 64.8814L74.6985 62.6101V50.7766L70.7666 53.0479V64.8814Z" fill="#76787A"/>
<path d="M75.2047 62.9029L74.6985 62.6101L70.7666 64.8814L71.2727 65.1742L75.2047 62.9029Z" fill="#704332"/>
<path d="M75.2053 62.9029L74.6992 62.6101V50.7766L75.2053 51.0694V62.9029Z" fill="#493127"/>
<path d="M70.541 52.9432V66.4122L75.937 63.2959V49.8269L70.541 52.9432ZM75.205 62.9027L71.273 65.174V53.3406L75.205 51.0693V62.9027Z" fill="#754F3F"/>
<path d="M80.4644 36.1406V55.8756L76.6997 58.0507V50.2705L71.3038 53.3826V61.167L67.9156 63.1204V52.8806L56.3499 59.5565V69.8005L52.5811 71.9756V52.2406L80.4644 36.1406Z" fill="#F1D7BF"/>
<path d="M68.4217 63.4131L71.8099 61.4597V67.1485L52.5811 78.2499V72.5612L56.856 70.0933V73.2388L68.4217 66.5629V63.4131Z" fill="#C48E5A"/>
<path d="M81.481 55.8756V61.5644L77.2061 64.0323V58.3436L81.481 55.8756Z" fill="#C48E5A"/>
<path d="M57.1112 71.9171L52.5811 74.5314V72.854L57.1112 70.2397V71.9171Z" fill="#EBA96B"/>
<path d="M81.9871 57.5572L77.457 60.1715V58.49L81.9871 55.8756V57.5572Z" fill="#EBA96B"/>
<path d="M72.0649 63.2835L68.6768 65.2411V63.5596L72.0649 61.6061V63.2835Z" fill="#EBA96B"/>
<path d="M71.3032 61.167L67.915 63.1204L68.6763 63.5596L72.0645 61.6062L71.3032 61.167Z" fill="#FFB774"/>
<path d="M81.2254 55.4363L76.6953 58.0507L77.4566 58.4899L81.9867 55.8755L81.2254 55.4363Z" fill="#FFB774"/>
<path d="M68.4219 65.0948L68.677 65.2412V63.5597L68.4219 63.4133V65.0948Z" fill="#B5562A"/>
<path d="M36.3169 63.1704L30.5068 59.8157V65.5044L52.5801 78.2498V72.561L45.2767 68.3446V71.4944L36.3169 66.3159V63.1704Z" fill="#AB683E"/>
<path d="M52.5794 72.8538L44.8828 68.4074V70.0889L52.5794 74.5312V72.8538Z" fill="#DE8745"/>
<path d="M77.2041 60.0248L77.4551 60.1712V58.4897L77.2041 58.3433V60.0248Z" fill="#B5562A"/>
<path d="M77.2042 58.3433L75.9326 57.6113L75.9368 63.3L77.2042 64.032V58.3433Z" fill="#B5562A"/>
<path d="M36.061 63.3168L30 59.8157V61.4972L36.061 64.9941V63.3168Z" fill="#DE8745"/>
<path d="M45.6441 67.9681L52.5794 71.9753L51.8181 72.4145L44.8828 68.4073L45.6441 67.9681Z" fill="#FFB774"/>
<path d="M30.7613 59.3763L36.8223 62.8774L36.061 63.3166L30 59.8155L30.7613 59.3763Z" fill="#FFB774"/>
<path d="M56.3485 69.8003L51.8184 72.4146L52.5797 72.8538L57.1097 70.2353L56.3485 69.8003Z" fill="#FFB774"/>
<path d="M36.3167 64.8477L36.0615 64.9941V63.3167L36.3167 63.1703V64.8477Z" fill="#B5562A"/>
<path d="M31.5234 40.085V59.8158L36.8232 62.8777V52.6337L45.645 57.7285V67.9683L52.5802 71.9755V52.2405L31.5234 40.085Z" fill="#D9C1AC"/>
<path d="M74.5524 48.3045L73.4355 48.9486L74.544 49.6346L75.6609 48.9905L74.5524 48.3045Z" fill="#F46F3B"/>
<path d="M77.1959 51.1617L76.0791 51.8059L74.5439 49.6349L75.6608 48.9908L77.1959 51.1617Z" fill="#FF664D"/>
<path d="M77.1966 51.1616L76.084 51.8058V52.9059C76.084 53.2698 76.4772 53.4999 76.7951 53.3158L76.657 53.3953C76.9917 53.2029 77.1966 52.8473 77.1966 52.4583V51.1616Z" fill="#F46F3B"/>
<path d="M75.6664 47.6601L74.5537 48.3043L75.6622 48.9903L76.7748 48.3503L75.6664 47.6601Z" fill="#DBE5FF"/>
<path d="M78.3099 50.517L77.1972 51.1612L75.6621 48.9902L76.7748 48.3503L78.3099 50.517Z" fill="url(#paint0_linear_1440_10807)"/>
<path d="M78.3099 50.5171L77.1973 51.1613V52.2614C77.1973 52.6253 77.5905 52.8554 77.9084 52.6713L77.7703 52.7508C78.105 52.5584 78.3099 52.2028 78.3099 51.8138V50.5171Z" fill="#DBE5FF"/>
<path d="M73.4369 48.9485L72.3242 49.5927L73.4327 50.2787L74.5453 49.6345L73.4369 48.9485Z" fill="#DBE5FF"/>
<path d="M76.0804 51.8055L74.9677 52.4497L73.4326 50.2787L74.5453 49.6346L76.0804 51.8055Z" fill="url(#paint1_linear_1440_10807)"/>
<path d="M76.0804 51.8055L74.9678 52.4497V53.5498C74.9678 53.9137 75.361 54.1438 75.6789 53.9597L75.5408 54.0392C75.8755 53.8468 76.0804 53.4912 76.0804 53.1022V51.8055Z" fill="#DBE5FF"/>
<path d="M76.7819 47.0161L75.665 47.6603L76.7735 48.3505L77.8904 47.7063L76.7819 47.0161Z" fill="#F46F3B"/>
<path d="M79.4254 49.8731L78.3086 50.5173L76.7734 48.3506L77.8903 47.7064L79.4254 49.8731Z" fill="#FF664D"/>
<path d="M79.4261 49.8732L78.3135 50.5174V51.6175C78.3135 51.9814 78.7067 52.2115 79.0246 52.0274L78.8865 52.1069C79.2212 51.9145 79.4261 51.5589 79.4261 51.1699V49.8732Z" fill="#F46F3B"/>
<path d="M72.3229 49.5928L71.2061 50.2328L72.3187 50.923L73.4314 50.2788L72.3229 49.5928Z" fill="#F46F3B"/>
<path d="M74.9671 52.4501L73.8545 53.0942L72.3193 50.9233L73.432 50.2791L74.9671 52.4501Z" fill="#FF664D"/>
<path d="M73.8536 53.0939L72.3184 50.923L71.21 50.2119V52.7468C71.21 53.2069 71.4568 53.6294 71.8541 53.8594L72.0298 53.9598C72.3477 54.1439 72.7409 53.9138 72.7409 53.5499V53.6294C72.7409 54.0895 72.9877 54.512 73.3851 54.742C73.6779 54.9093 74.0376 54.9093 74.3304 54.742C74.7278 54.512 74.9746 54.0895 74.9746 53.6294V52.4498L73.8536 53.0939Z" fill="#F46F3B"/>
<path d="M59.2845 57.1176L58.1719 57.7618L59.2804 58.452L60.393 57.8078L59.2845 57.1176Z" fill="#F46F3B"/>
<path d="M61.9281 59.9749L60.8154 60.6191L59.2803 58.4523L60.3929 57.8081L61.9281 59.9749Z" fill="#FF664D"/>
<path d="M61.9281 59.9749L60.8154 60.6191V61.7192C60.8154 62.0831 61.2086 62.3132 61.5265 62.1291L61.3885 62.2086C61.7231 62.0162 61.9281 61.6607 61.9281 61.2716V59.9749Z" fill="#F46F3B"/>
<path d="M60.401 56.4734L59.2842 57.1176L60.3926 57.8077L61.5095 57.1636L60.401 56.4734Z" fill="#DBE5FF"/>
<path d="M63.0446 59.3344L61.9277 59.9744L60.3926 57.8077L61.5094 57.1635L63.0446 59.3344Z" fill="url(#paint2_linear_1440_10807)"/>
<path d="M63.0453 59.3344L61.9326 59.9786V61.0787C61.9326 61.4426 62.3258 61.6727 62.6437 61.4886L62.5057 61.5681C62.8403 61.3757 63.0453 61.0202 63.0453 60.6311V59.3344Z" fill="#DBE5FF"/>
<path d="M58.1715 57.7618L57.0547 58.406L58.1632 59.092L59.28 58.452L58.1715 57.7618Z" fill="#DBE5FF"/>
<path d="M60.8151 60.6187L59.6982 61.2629L58.1631 59.092L59.2799 58.452L60.8151 60.6187Z" fill="url(#paint3_linear_1440_10807)"/>
<path d="M60.8158 60.6188L59.7031 61.263V62.3631C59.7031 62.727 60.0963 62.9571 60.4142 62.773L60.2762 62.8525C60.6108 62.6601 60.8158 62.3046 60.8158 61.9155V60.6188Z" fill="#DBE5FF"/>
<path d="M61.514 55.8334L60.4014 56.4734L61.5098 57.1635L62.6225 56.5194L61.514 55.8334Z" fill="#F46F3B"/>
<path d="M64.1575 58.6903L63.0449 59.3345L61.5098 57.1636L62.6224 56.5194L64.1575 58.6903Z" fill="#FF664D"/>
<path d="M64.1576 58.6903L63.0449 59.3345V60.4346C63.0449 60.7985 63.4381 61.0286 63.756 60.8445L63.618 60.924C63.9526 60.7316 64.1576 60.3761 64.1576 59.987V58.6903Z" fill="#F46F3B"/>
<path d="M63.7448 54.5453L62.6279 55.1895L63.7406 55.8755L64.8532 55.2313L63.7448 54.5453Z" fill="#F46F3B"/>
<path d="M66.389 57.4023L65.2763 58.0465L63.7412 55.8756L64.8539 55.2314L66.389 57.4023Z" fill="#FF664D"/>
<path d="M66.389 57.4023L65.2764 58.0465V59.1466C65.2764 59.5105 65.6696 59.7406 65.9875 59.5565L65.8494 59.636C66.1841 59.4436 66.389 59.0881 66.389 58.699V57.4023Z" fill="#F46F3B"/>
<path d="M64.8558 53.9008L63.7432 54.545L64.8516 55.231L65.9685 54.591L64.8558 53.9008Z" fill="#DBE5FF"/>
<path d="M67.4993 56.7577L66.3867 57.4018L64.8516 55.2309L65.9684 54.5909L67.4993 56.7577Z" fill="url(#paint4_linear_1440_10807)"/>
<path d="M67.4994 56.7578L66.3867 57.4019V58.5021C66.3867 58.866 66.7799 59.096 67.0978 58.912L66.9598 58.9915C67.2944 58.799 67.4994 58.4435 67.4994 58.0545V56.7578Z" fill="#DBE5FF"/>
<path d="M62.6263 55.1892L61.5137 55.8333L62.6221 56.5193L63.739 55.8752L62.6263 55.1892Z" fill="#DBE5FF"/>
<path d="M65.274 58.0461L64.1572 58.6903L62.6221 56.5194L63.7389 55.8752L65.274 58.0461Z" fill="url(#paint5_linear_1440_10807)"/>
<path d="M65.2748 58.0462L64.1621 58.6903V59.7904C64.1621 60.1544 64.5553 60.3844 64.8732 60.2004L64.7352 60.2798C65.0698 60.0874 65.2748 59.7319 65.2748 59.3429V58.0462Z" fill="#DBE5FF"/>
<path d="M65.9733 53.2568L64.8564 53.901L65.9691 54.5912L67.0818 53.947L65.9733 53.2568Z" fill="#F46F3B"/>
<path d="M68.6175 56.1138L67.5007 56.758L65.9697 54.5912L67.0824 53.9471L68.6175 56.1138Z" fill="#FF664D"/>
<path d="M68.6175 56.1139L67.5049 56.7581V57.8582C67.5049 58.2221 67.8981 58.4521 68.216 58.2681L68.0779 58.3476C68.4126 58.1552 68.6175 57.7996 68.6175 57.4106V56.1139Z" fill="#F46F3B"/>
<path d="M67.0853 52.6124L65.9727 53.2565L67.0811 53.9467L68.1938 53.3025L67.0853 52.6124Z" fill="#DBE5FF"/>
<path d="M69.7288 55.4692L68.6162 56.1134L67.0811 53.9467L68.1937 53.3025L69.7288 55.4692Z" fill="url(#paint6_linear_1440_10807)"/>
<path d="M69.7289 55.4694L68.6162 56.1135V57.2136C68.6162 57.5775 69.0094 57.8076 69.3273 57.6236L69.1893 57.703C69.5239 57.5106 69.7289 57.1551 69.7289 56.7661V55.4694Z" fill="#DBE5FF"/>
<path d="M68.2028 51.9684L67.0859 52.6126L68.1944 53.3028L69.3113 52.6586L68.2028 51.9684Z" fill="#F46F3B"/>
<path d="M70.8463 54.8296L69.7295 55.4695L68.1943 53.3028L69.3112 52.6586L70.8463 54.8296Z" fill="#FF664D"/>
<path d="M70.847 54.8295L69.7344 55.4737V56.5738C69.7344 56.9377 70.1276 57.1678 70.4455 56.9837L70.3074 57.0632C70.6421 56.8708 70.847 56.5152 70.847 56.1262V54.8295Z" fill="#F46F3B"/>
<path d="M57.055 58.406L55.9424 59.0502L57.0509 59.7362L58.1635 59.092L57.055 58.406Z" fill="#F46F3B"/>
<path d="M59.6986 61.2627L58.5859 61.9069L57.0508 59.7359L58.1634 59.0918L59.6986 61.2627Z" fill="#FF664D"/>
<path d="M58.586 61.9071L57.0509 59.7361L55.9424 59.0251V61.5599C55.9424 62.02 56.1892 62.4425 56.5866 62.6726L56.7622 62.7729C57.0801 62.957 57.4733 62.7269 57.4733 62.363V62.4425C57.4733 62.9026 57.7201 63.3251 58.1175 63.5552C58.4103 63.7225 58.77 63.7225 59.0628 63.5552C59.4602 63.3251 59.707 62.9026 59.707 62.4425V61.2629L58.586 61.9071Z" fill="#F46F3B"/>
<path d="M43.5271 49.0952L44.6398 49.7394L43.2259 50.5885L42.1133 49.9443L43.5271 49.0952Z" fill="#F46F3B"/>
<path d="M39.9424 58.0716L41.0592 58.7158L43.226 50.5884L42.1133 49.9442L39.9424 58.0716Z" fill="#FF664D"/>
<path d="M39.9424 58.0717L41.055 58.7159V59.816C41.055 60.1799 40.6618 60.41 40.3439 60.2259L40.482 60.3054C40.1473 60.113 39.9424 59.7574 39.9424 59.3684V58.0717Z" fill="#F46F3B"/>
<path d="M46.8685 51.0235L45.7559 51.6927V59.7616C45.7559 60.1255 46.1491 60.3556 46.467 60.1715L46.3289 60.251C46.6635 60.0586 46.8685 59.703 46.8685 59.314V51.0235Z" fill="#F46F3B"/>
<path d="M42.4099 48.4506L43.5268 49.0948L42.1129 49.9439L40.9961 49.2997L42.4099 48.4506Z" fill="#DBE5FF"/>
<path d="M38.8301 57.4271L39.9427 58.0712L42.1137 49.9438L40.9968 49.2997L38.8301 57.4271Z" fill="url(#paint7_linear_1440_10807)"/>
<path d="M38.8301 57.4271L39.9427 58.0713V59.1714C39.9427 59.5353 39.5495 59.7653 39.2316 59.5813L39.3697 59.6608C39.035 59.4684 38.8301 59.1128 38.8301 58.7238V57.4271Z" fill="#DBE5FF"/>
<path d="M44.6394 49.739L45.7562 50.379L44.3424 51.2281L43.2256 50.5881L44.6394 49.739Z" fill="#DBE5FF"/>
<path d="M41.0596 58.7154L42.1722 59.3596L44.3432 51.228L43.2263 50.588L41.0596 58.7154Z" fill="url(#paint8_linear_1440_10807)"/>
<path d="M41.0596 58.7155L42.1722 59.3597V60.4598C42.1722 60.8237 41.779 61.0537 41.4611 60.8697L41.5992 60.9492C41.2645 60.7567 41.0596 60.4012 41.0596 60.0122V58.7155Z" fill="#DBE5FF"/>
<path d="M41.2976 47.8068L42.4103 48.451L40.9964 49.3001L39.8838 48.6559L41.2976 47.8068Z" fill="#F46F3B"/>
<path d="M37.7129 56.7874L38.8297 57.4274L40.9965 49.3L39.8838 48.6559L37.7129 56.7874Z" fill="#FF664D"/>
<path d="M37.7129 56.7876L38.8255 57.4318V58.5319C38.8255 58.8958 38.4323 59.1259 38.1144 58.9418L38.2525 59.0213C37.9179 58.8289 37.7129 58.4733 37.7129 58.0843V56.7876Z" fill="#F46F3B"/>
<path d="M39.0681 46.5184L40.1808 47.1625L38.7669 48.0117L37.6543 47.3675L39.0681 46.5184Z" fill="#F46F3B"/>
<path d="M35.4834 55.499L36.6002 56.1432L38.767 48.0116L37.6543 47.3674L35.4834 55.499Z" fill="#FF664D"/>
<path d="M35.4834 55.4992L36.596 56.1434V57.2435C36.596 57.6074 36.2029 57.8375 35.885 57.6534L36.023 57.7329C35.6884 57.5405 35.4834 57.1849 35.4834 56.7959V55.4992Z" fill="#F46F3B"/>
<path d="M37.9509 45.8737L39.0678 46.5179L37.654 47.367L36.5371 46.727L37.9509 45.8737Z" fill="#DBE5FF"/>
<path d="M34.3711 54.8545L35.4838 55.4987L37.6547 47.3671L36.5378 46.7271L34.3711 54.8545Z" fill="url(#paint9_linear_1440_10807)"/>
<path d="M34.3711 54.8546L35.4838 55.4987V56.5988C35.4838 56.9627 35.0906 57.1928 34.7726 57.0088L34.9107 57.0882C34.5761 56.8958 34.3711 56.5403 34.3711 56.1513V54.8546Z" fill="#DBE5FF"/>
<path d="M40.1804 47.1621L41.2973 47.8063L39.8834 48.6554L38.7666 48.0113L40.1804 47.1621Z" fill="#DBE5FF"/>
<path d="M36.6006 56.1428L37.7132 56.787L39.8842 48.6554L38.7673 48.0112L36.6006 56.1428Z" fill="url(#paint10_linear_1440_10807)"/>
<path d="M36.6006 56.143L37.7132 56.7871V57.8872C37.7132 58.2512 37.32 58.4812 37.0021 58.2972L37.1402 58.3766C36.8055 58.1842 36.6006 57.8287 36.6006 57.4397V56.143Z" fill="#DBE5FF"/>
<path d="M36.8386 45.2341L37.9513 45.8741L36.5375 46.7274L35.4248 46.0832L36.8386 45.2341Z" fill="#F46F3B"/>
<path d="M33.2539 54.2106L34.3707 54.8547L36.5375 46.7273L35.4248 46.0832L33.2539 54.2106Z" fill="#FF664D"/>
<path d="M33.2539 54.2106L34.3666 54.8548V55.9549C34.3666 56.3188 33.9734 56.5489 33.6555 56.3648L33.7935 56.4443C33.4589 56.2519 33.2539 55.8963 33.2539 55.5073V54.2106Z" fill="#F46F3B"/>
<path d="M45.7559 50.3787L46.8686 51.0228L45.4547 51.872L44.3379 51.232L45.7559 50.3787Z" fill="#F46F3B"/>
<path d="M42.1719 59.3594L43.2887 60.0036L45.4555 51.872L44.3386 51.232L42.1719 59.3594Z" fill="#FF664D"/>
<path d="M43.288 60.0038L45.4548 51.8722L45.7559 51.6924V59.7612C45.7559 60.2213 45.5091 60.6438 45.1118 60.8739C44.7939 61.0579 44.4007 60.8279 44.4007 60.464V60.5434C44.4007 61.0035 44.1539 61.426 43.7565 61.6561C43.4637 61.8234 43.104 61.8234 42.8112 61.6561C42.4138 61.426 42.167 61.0035 42.167 60.5434V59.3638L43.288 60.0038Z" fill="#F46F3B"/>
<path d="M76.8824 40.2685L77.7608 40.7788C77.5098 40.6324 77.1627 40.6533 76.7778 40.875L75.8994 40.3647C76.2801 40.143 76.6272 40.1221 76.8824 40.2685Z" fill="#F46F3B"/>
<path d="M56.8281 57.6273L55.9497 57.117C55.7029 56.9706 55.5481 56.6652 55.5439 56.2302L56.4224 56.7405C56.4265 57.1756 56.5813 57.4809 56.8281 57.6273Z" fill="#F46F3B"/>
<path d="M56.4278 56.7367L55.5494 56.2264L55.541 53.7083L56.4194 54.2228L56.4278 56.7367Z" fill="#F46F3B"/>
<path d="M57.7993 51.8301L56.9209 51.3198L75.8946 40.3648L76.773 40.8751L57.7993 51.8301Z" fill="#F46F3B"/>
<path d="M56.4194 54.2227L55.541 53.7124C55.5369 52.8339 56.1559 51.7631 56.9214 51.3239L57.7998 51.8342C57.0343 52.2734 56.4194 53.3443 56.4194 54.2227Z" fill="#F46F3B"/>
<path d="M76.774 40.8746C77.5395 40.4312 78.1585 40.7867 78.1627 41.6651L78.1711 44.1833C78.1753 45.0617 77.5562 46.1325 76.7907 46.5717L57.817 57.5268C57.0516 57.9701 56.4325 57.6146 56.4283 56.7362L56.4199 54.2181C56.4158 53.3397 57.0348 52.2688 57.8003 51.8296L76.774 40.8746Z" fill="#FF664D"/>
<path d="M75.1221 45.8315L74.6787 45.5763L75.7035 44.9865L76.1427 45.2417L75.1221 45.8315Z" fill="#FFE3CA"/>
<path d="M75.1179 44.8486L74.6787 44.5934L75.6199 44.0496L76.0591 44.3048L75.1179 44.8486Z" fill="#FFE3CA"/>
<path d="M74.5277 46.8148L74.0885 46.5554L74.0801 43.8867L74.5193 44.1419L74.5277 46.8148Z" fill="#FFCC9E"/>
<path d="M74.5193 44.1414L74.0801 43.8863L75.6989 42.9535L76.1381 43.2086L74.5193 44.1414Z" fill="#FFE3CA"/>
<path d="M76.1383 43.2088V43.8404L75.1177 44.4344V44.8485L76.0588 44.3048V44.8904L75.1177 45.4341L75.1219 45.8315L76.1425 45.2417L76.1467 45.8775L74.5279 46.8145L74.5195 44.1416L76.1383 43.2088Z" fill="#FFFEFC"/>
<path d="M72.9705 46.9103L72.5312 46.6551C72.6567 46.7263 72.8366 46.6928 72.9872 46.6091C73.1336 46.5255 73.2549 46.3874 73.2591 46.2452C73.2591 46.1992 73.2465 46.1741 73.2172 46.1574L73.6565 46.4125C73.6857 46.4293 73.7025 46.4585 73.6983 46.5004C73.6899 46.6426 73.5728 46.7764 73.4264 46.8643C73.2758 46.9479 73.0918 46.9814 72.9705 46.9103Z" fill="#FFCC9E"/>
<path d="M72.6643 47.5716L72.2251 47.3164C72.1916 47.2955 72.1582 47.2746 72.1289 47.2453L72.5681 47.5005C72.5974 47.5297 72.6309 47.5548 72.6643 47.5716Z" fill="#FFE3CA"/>
<path d="M72.5652 47.5002L72.126 47.2451L72.4982 46.6302L72.9375 46.8853L72.5652 47.5002Z" fill="#FFCC9E"/>
<path d="M73.3799 45.0074L73.8191 45.2626C73.8233 45.2668 73.8274 45.2668 73.8316 45.2709L73.3924 45.0158C73.3882 45.0116 73.3841 45.0116 73.3799 45.0074Z" fill="#FFE3CA"/>
<path d="M73.6597 45.434L74.0989 45.6892C73.9441 45.6013 73.7057 45.6599 73.4714 45.7477L73.0322 45.4926C73.2707 45.4089 73.5049 45.3462 73.6597 45.434Z" fill="#FFE3CA"/>
<path d="M73.2127 45.7687L72.7734 45.5136C72.8278 45.5429 72.9199 45.5345 73.0328 45.4927L73.472 45.7478C73.3549 45.7897 73.2628 45.798 73.2127 45.7687Z" fill="#FFE3CA"/>
<path d="M73.698 44.4009L74.1372 44.656C73.9155 44.5264 73.6729 44.5975 73.4177 44.7397L72.9785 44.4845C73.2337 44.3381 73.4763 44.2712 73.698 44.4009Z" fill="#FFE3CA"/>
<path d="M73.4214 44.7396C73.7017 44.5765 73.9777 44.5096 74.2161 44.7062L73.8355 45.2667C73.7184 45.1914 73.5594 45.2123 73.4256 45.2876C73.2834 45.3671 73.1704 45.5135 73.1662 45.6766C73.1746 45.8021 73.2959 45.8063 73.4758 45.7477C73.8899 45.593 74.304 45.5219 74.2789 46.1953C74.2622 46.7224 73.7895 47.2787 73.3628 47.5255C73.0826 47.6844 72.7898 47.697 72.5723 47.5004L72.9404 46.8855C73.0617 46.9859 73.2624 46.9566 73.4298 46.8604C73.5762 46.7767 73.6933 46.6387 73.7016 46.4965C73.7058 46.3417 73.4967 46.3794 73.3043 46.4588C72.932 46.6052 72.589 46.5341 72.5848 46.0238C72.5806 45.5009 72.9906 44.9864 73.4214 44.7396Z" fill="#FFFEFC"/>
<path d="M72.7774 46.4756L72.3382 46.2204C72.2211 46.1493 72.1416 46.0071 72.1416 45.7686C72.1416 45.2458 72.5515 44.7313 72.9782 44.4845L73.4174 44.7396C72.9907 44.9864 72.5766 45.5009 72.5808 46.0238C72.5808 46.2664 72.6561 46.4086 72.7774 46.4756Z" fill="#FFE3CA"/>
<path d="M71.721 48.4331L71.2818 48.178L71.2734 45.5051L71.7126 45.7644L71.721 48.4331Z" fill="#FFCC9E"/>
<path d="M71.7126 45.7647L71.2734 45.5053L71.8632 45.1665L72.3024 45.4217L71.7126 45.7647Z" fill="#FFE3CA"/>
<path d="M72.3037 45.4219L72.3078 48.0948L71.7222 48.4336L71.7139 45.7649L72.3037 45.4219Z" fill="#FFFEFC"/>
<path d="M70.7627 48.9857L70.3235 48.7305L70.3193 47.7224L70.7585 47.9776L70.7627 48.9857Z" fill="#FFCC9E"/>
<path d="M70.0906 47.7137L69.6514 47.4586L70.3206 47.0696L70.7598 47.3247L70.0906 47.7137Z" fill="#FFE3CA"/>
<path d="M70.7598 47.3246L70.3206 47.0695L70.3164 46.0614L70.7556 46.3166L70.7598 47.3246Z" fill="#FFCC9E"/>
<path d="M70.7556 46.3167L70.3164 46.0615L70.9062 45.7185L71.3454 45.9737L70.7556 46.3167Z" fill="#FFE3CA"/>
<path d="M69.4978 47.0443L69.0586 46.7892L69.6484 46.4462L70.0876 46.7013L69.4978 47.0443Z" fill="#FFE3CA"/>
<path d="M69.5062 49.7131L69.067 49.4579L69.0586 46.7892L69.4978 47.0444L69.5062 49.7131Z" fill="#FFCC9E"/>
<path d="M71.3449 45.9736L71.3533 48.6423L70.7635 48.9853L70.7593 47.9772L70.0901 48.3662L70.0942 49.3701L69.5045 49.7131L69.4961 47.0444L70.0859 46.7014L70.0901 47.7137L70.7593 47.3247L70.7551 46.3166L71.3449 45.9736Z" fill="#FFFEFC"/>
<path d="M68.7771 49.299L68.3379 49.0438L68.8482 49.0187L69.2874 49.2739L68.7771 49.299Z" fill="#FFE3CA"/>
<path d="M68.1863 49.7714L67.7471 49.5162C67.8098 49.5497 67.906 49.5329 68.0064 49.4786C68.1403 49.3991 68.2825 49.2485 68.3369 49.0477L68.7761 49.3029C68.7175 49.5037 68.5795 49.6584 68.4456 49.7337C68.3452 49.7881 68.2448 49.8048 68.1863 49.7714Z" fill="#FFCC9E"/>
<path d="M68.3008 47.9398L68.74 48.1949C68.7609 48.2075 68.7818 48.2242 68.7944 48.2493L68.3552 47.9941C68.3426 47.969 68.3217 47.9523 68.3008 47.9398Z" fill="#FFE3CA"/>
<path d="M67.747 50.4573L67.3078 50.2021C67.1781 50.1268 67.0986 49.9721 67.0986 49.7169L67.5378 49.9721C67.5337 50.2272 67.6173 50.382 67.747 50.4573Z" fill="#FFCC9E"/>
<path d="M68.6431 47.2786L69.0823 47.5338C68.8982 47.425 68.6598 47.4878 68.4548 47.6091L68.0156 47.3539C68.2206 47.2326 68.4548 47.1699 68.6431 47.2786Z" fill="#FFE3CA"/>
<path d="M67.5342 49.9725L67.095 49.7174L67.0908 48.7971L67.5342 49.0523V49.9725Z" fill="#FFCC9E"/>
<path d="M67.5349 49.0523L67.0957 48.7971C67.0957 48.1948 67.5516 47.6176 68.0201 47.3499L68.4593 47.605C67.9909 47.8769 67.5307 48.45 67.5349 49.0523Z" fill="#FFE3CA"/>
<path d="M68.4547 47.6049C68.7391 47.4417 69.0863 47.3832 69.2745 47.7471L68.7977 48.2448C68.7266 48.1361 68.5844 48.1528 68.4505 48.2323C68.279 48.3285 68.1201 48.5293 68.1201 48.7133L68.1242 49.6336C68.1242 49.8092 68.2832 49.826 68.4463 49.7298C68.5802 49.6503 68.7224 49.4997 68.7768 49.2989L69.2913 49.2738C69.0989 49.8218 68.7475 50.1899 68.4547 50.3572C67.9988 50.6207 67.5386 50.5789 67.5345 49.9724L67.5303 49.0521C67.5303 48.4498 67.9904 47.8767 68.4547 47.6049Z" fill="#FFFEFC"/>
<path d="M66.6892 50.341L66.25 50.0858L66.2667 50.0733L66.7059 50.3284L66.6892 50.341Z" fill="#FFE3CA"/>
<path d="M66.7063 50.3285L66.2671 50.0734L66.2002 49.6509L66.6394 49.906L66.7063 50.3285Z" fill="#FFE3CA"/>
<path d="M66.6323 51.37L66.1931 51.1149L65.666 50.3661L66.1052 50.6255L66.6323 51.37Z" fill="#FFCC9E"/>
<path d="M66.1051 50.6254L65.6659 50.3661L65.4609 49.9478L65.9001 50.2029L66.1051 50.6254Z" fill="#FFE3CA"/>
<path d="M66.6397 49.906L66.2005 49.6508L66.1963 48.442L66.6355 48.6971L66.6397 49.906Z" fill="#FFCC9E"/>
<path d="M66.6355 48.6971L66.1963 48.442L66.7777 48.1031L67.2169 48.3583L66.6355 48.6971Z" fill="#FFE3CA"/>
<path d="M65.3679 49.4291L64.9287 49.1698L65.485 48.8519L65.9242 49.1071L65.3679 49.4291Z" fill="#FFE3CA"/>
<path d="M65.3763 52.0977L64.9371 51.8426L64.9287 49.1697L65.3679 49.429L65.3763 52.0977Z" fill="#FFCC9E"/>
<path d="M67.216 48.3586L67.2244 51.0273L66.6304 51.3703L66.1034 50.6257L65.8984 50.2032L65.8817 50.2158L65.957 50.6926L65.9612 51.7593L65.3755 52.0981L65.3672 49.4294L65.9235 49.1073L66.4882 49.9188L66.689 50.3413L66.7057 50.3287L66.6388 49.9063L66.6346 48.6974L67.216 48.3586Z" fill="#FFFEFC"/>
<path d="M64.5898 52.5495L64.1506 52.2944L64 51.8468L64.4392 52.102L64.5898 52.5495Z" fill="#FFCC9E"/>
<path d="M63.0466 53.4407L62.6074 53.1856L62.62 53.127L63.0634 53.3822L63.0466 53.4407Z" fill="#FFE3CA"/>
<path d="M63.946 51.7842L63.5068 51.5291L63.854 51.3283L64.2974 51.5834L63.946 51.7842Z" fill="#FFE3CA"/>
<path d="M64.2976 51.5835L63.8543 51.3284L63.6953 50.6382L64.1345 50.8975L64.2976 51.5835Z" fill="#FFCC9E"/>
<path d="M63.0635 53.3823L62.6201 53.1271L63.4107 50.0485L63.8499 50.3037L63.0635 53.3823Z" fill="#FFCC9E"/>
<path d="M63.8494 50.3035L63.4102 50.0483L63.9414 49.7388L64.3848 49.994L63.8494 50.3035Z" fill="#FFE3CA"/>
<path d="M64.3847 49.9939L65.2213 52.1858L64.5897 52.5497L64.4349 52.1021L63.8158 52.4618L63.6736 53.0809L63.0964 53.4155L63.042 53.4448L63.0587 53.3821L63.8451 50.3076L64.3847 49.9939ZM63.9455 51.7842L64.2927 51.5834L64.1296 50.8933L64.1128 50.9016L63.9455 51.7842Z" fill="#FFFEFC"/>
<path d="M62.3645 53.8338L61.9253 53.5787L61.3857 53.0432L61.8249 53.2984L62.3645 53.8338Z" fill="#FFCC9E"/>
<path d="M61.8248 51.6838L62.264 51.939C62.4104 52.0227 62.3435 52.4158 62.0632 52.579L61.624 52.3238C61.9043 52.1607 61.9712 51.7675 61.8248 51.6838Z" fill="#FFCC9E"/>
<path d="M61.7207 52.7757L61.2773 52.5205L61.6245 52.3239L62.0637 52.5791L61.7207 52.7757Z" fill="#FFE3CA"/>
<path d="M62.2732 50.9686L62.7124 51.2238C62.5535 51.1317 62.3192 51.1903 62.0515 51.3451L61.6123 51.0899C61.88 50.931 62.1184 50.8766 62.2732 50.9686Z" fill="#FFE3CA"/>
<path d="M61.1312 54.549L60.6878 54.2938L60.6836 51.6251L61.1228 51.8803L61.1312 54.549Z" fill="#FFCC9E"/>
<path d="M62.4606 52.8636L63.0588 53.3822L63.042 53.445L62.3644 53.8382L61.8248 53.3028L61.7202 53.3655L61.7244 54.2146L61.1304 54.5576L61.1221 51.8889L62.0507 51.3535C62.5275 51.0775 62.8998 51.1151 62.9165 51.7342C62.9165 52.2194 62.745 52.5959 62.4606 52.8636ZM62.0632 52.5791C62.4355 52.3658 62.4313 51.7551 62.0632 51.9684L61.7202 52.1692V52.7799L62.0632 52.5791Z" fill="#FFFEFC"/>
<path d="M61.1228 51.8808L60.6836 51.6257L61.6122 51.0861L62.0514 51.3412L61.1228 51.8808Z" fill="#FFE3CA"/>
<path d="M59.8249 53.7459L59.3857 53.4908L60.2851 52.9763L60.7243 53.2314L59.8249 53.7459Z" fill="#FFE3CA"/>
<path d="M59.2405 55.641L58.7971 55.3858L58.793 52.7171L59.2322 52.9723L59.2405 55.641Z" fill="#FFCC9E"/>
<path d="M59.2322 52.9719L58.793 52.7168L60.4076 51.7798L60.851 52.035L59.2322 52.9719Z" fill="#FFE3CA"/>
<path d="M60.8493 52.0348V52.679L59.8244 53.2688V53.7456L60.7238 53.2311V53.8585L59.8286 54.3772L59.8328 55.2975L59.2388 55.6405L59.2305 52.9718L60.8493 52.0348Z" fill="#FFFEFC"/>
<path d="M81.985 35.7765L52.5791 52.7507V48.2625L81.985 31.284V35.7765Z" fill="#FF664D"/>
<path d="M30 35.2243L59.4059 18.25L81.9852 31.284L52.5794 48.2624L30 35.2243Z" fill="#FF7B66"/>
<path d="M59.0875 20.5882L77.9315 31.468L52.8968 45.9199L34.0527 35.0402L59.0875 20.5882Z" fill="#D83D01"/>
<path d="M59.0875 20.5882L34.0527 35.0402L35.2239 35.7178L56.7952 23.2653L73.7904 33.0784L52.2191 45.5309L52.8968 45.9199L77.9315 31.468L59.0875 20.5882Z" fill="#9C9997"/>
<path d="M30 39.7168L52.5794 52.7507V48.2625L30 35.2243V39.7168Z" fill="#F46F3B"/>
<path d="M59.0875 23.2653L75.6142 32.8065L77.9315 31.468L59.0875 20.5882L34.0527 35.0402L36.3701 36.3787L59.0875 23.2653Z" fill="#F46F3B"/>
<path d="M59.0875 23.2653L36.3701 36.3787L34.0527 35.0402L59.0875 20.5882V23.2653Z" fill="#FF664D"/>
<circle cx="23.2325" cy="14.5198" r="11.5841" fill="#F46F3B"/>
<path d="M22.8346 20.073V11.0623L20.8165 12.291V10.5559L22.8346 9.34948H24.4208V20.073H22.8346Z" fill="white"/>
<defs>
<filter id="filter0_dd_1440_10807" x="0.891909" y="0.453553" width="109.221" height="109.221" filterUnits="userSpaceOnUse" color-interpolation-filters="sRGB">
<feFlood flood-opacity="0" result="BackgroundImageFix"/>
<feColorMatrix in="SourceAlpha" type="matrix" values="0 0 0 0 0 0 0 0 0 0 0 0 0 0 0 0 0 0 127 0" result="hardAlpha"/>
<feOffset dy="6.61948"/>
<feGaussianBlur stdDeviation="6.61948"/>
<feColorMatrix type="matrix" values="0 0 0 0 0 0 0 0 0 0 0 0 0 0 0 0 0 0 0.08 0"/>
<feBlend mode="normal" in2="BackgroundImageFix" result="effect1_dropShadow_1440_10807"/>
<feColorMatrix in="SourceAlpha" type="matrix" values="0 0 0 0 0 0 0 0 0 0 0 0 0 0 0 0 0 0 127 0" result="hardAlpha"/>
<feOffset/>
<feGaussianBlur stdDeviation="1.65487"/>
<feColorMatrix type="matrix" values="0 0 0 0 0 0 0 0 0 0 0 0 0 0 0 0 0 0 0.04 0"/>
<feBlend mode="normal" in2="effect1_dropShadow_1440_10807" result="effect2_dropShadow_1440_10807"/>
<feBlend mode="normal" in="SourceGraphic" in2="effect2_dropShadow_1440_10807" result="shape"/>
</filter>
<linearGradient id="paint0_linear_1440_10807" x1="77.6483" y1="50.9011" x2="76.3251" y2="48.6091" gradientUnits="userSpaceOnUse">
<stop stop-color="#EFEAEA"/>
<stop offset="0.0584" stop-color="#EAE8E8"/>
<stop offset="0.0892" stop-color="#E5E5E5"/>
<stop offset="0.6684" stop-color="#E9E7E7"/>
<stop offset="1" stop-color="#EFEAEA"/>
</linearGradient>
<linearGradient id="paint1_linear_1440_10807" x1="75.4191" y1="52.1883" x2="74.0959" y2="49.8964" gradientUnits="userSpaceOnUse">
<stop stop-color="#EFEAEA"/>
<stop offset="0.0584" stop-color="#EAE8E8"/>
<stop offset="0.0892" stop-color="#E5E5E5"/>
<stop offset="0.6684" stop-color="#E9E7E7"/>
<stop offset="1" stop-color="#EFEAEA"/>
</linearGradient>
<linearGradient id="paint2_linear_1440_10807" x1="62.3799" y1="59.7158" x2="61.0566" y2="57.4238" gradientUnits="userSpaceOnUse">
<stop stop-color="#EFEAEA"/>
<stop offset="0.0584" stop-color="#EAE8E8"/>
<stop offset="0.0892" stop-color="#E5E5E5"/>
<stop offset="0.6684" stop-color="#E9E7E7"/>
<stop offset="1" stop-color="#EFEAEA"/>
</linearGradient>
<linearGradient id="paint3_linear_1440_10807" x1="60.1507" y1="61.003" x2="58.8274" y2="58.711" gradientUnits="userSpaceOnUse">
<stop stop-color="#EFEAEA"/>
<stop offset="0.0584" stop-color="#EAE8E8"/>
<stop offset="0.0892" stop-color="#E5E5E5"/>
<stop offset="0.6684" stop-color="#E9E7E7"/>
<stop offset="1" stop-color="#EFEAEA"/>
</linearGradient>
<linearGradient id="paint4_linear_1440_10807" x1="66.8382" y1="57.1414" x2="65.515" y2="54.8495" gradientUnits="userSpaceOnUse">
<stop stop-color="#EFEAEA"/>
<stop offset="0.0584" stop-color="#EAE8E8"/>
<stop offset="0.0892" stop-color="#E5E5E5"/>
<stop offset="0.6684" stop-color="#E9E7E7"/>
<stop offset="1" stop-color="#EFEAEA"/>
</linearGradient>
<linearGradient id="paint5_linear_1440_10807" x1="64.6091" y1="58.4287" x2="63.2858" y2="56.1367" gradientUnits="userSpaceOnUse">
<stop stop-color="#EFEAEA"/>
<stop offset="0.0584" stop-color="#EAE8E8"/>
<stop offset="0.0892" stop-color="#E5E5E5"/>
<stop offset="0.6684" stop-color="#E9E7E7"/>
<stop offset="1" stop-color="#EFEAEA"/>
</linearGradient>
<linearGradient id="paint6_linear_1440_10807" x1="69.0675" y1="55.8543" x2="67.7442" y2="53.5623" gradientUnits="userSpaceOnUse">
<stop stop-color="#EFEAEA"/>
<stop offset="0.0584" stop-color="#EAE8E8"/>
<stop offset="0.0892" stop-color="#E5E5E5"/>
<stop offset="0.6684" stop-color="#E9E7E7"/>
<stop offset="1" stop-color="#EFEAEA"/>
</linearGradient>
<linearGradient id="paint7_linear_1440_10807" x1="38.4391" y1="57.2041" x2="42.5015" y2="50.1679" gradientUnits="userSpaceOnUse">
<stop stop-color="#EFEAEA"/>
<stop offset="0.0584" stop-color="#EAE8E8"/>
<stop offset="0.0892" stop-color="#E5E5E5"/>
<stop offset="0.6684" stop-color="#E9E7E7"/>
<stop offset="1" stop-color="#EFEAEA"/>
</linearGradient>
<linearGradient id="paint8_linear_1440_10807" x1="40.6682" y1="58.4913" x2="44.7306" y2="51.455" gradientUnits="userSpaceOnUse">
<stop stop-color="#EFEAEA"/>
<stop offset="0.0584" stop-color="#EAE8E8"/>
<stop offset="0.0892" stop-color="#E5E5E5"/>
<stop offset="0.6684" stop-color="#E9E7E7"/>
<stop offset="1" stop-color="#EFEAEA"/>
</linearGradient>
<linearGradient id="paint9_linear_1440_10807" x1="33.9805" y1="54.6299" x2="38.0429" y2="47.5936" gradientUnits="userSpaceOnUse">
<stop stop-color="#EFEAEA"/>
<stop offset="0.0584" stop-color="#EAE8E8"/>
<stop offset="0.0892" stop-color="#E5E5E5"/>
<stop offset="0.6684" stop-color="#E9E7E7"/>
<stop offset="1" stop-color="#EFEAEA"/>
</linearGradient>
<linearGradient id="paint10_linear_1440_10807" x1="36.2096" y1="55.9169" x2="40.272" y2="48.8806" gradientUnits="userSpaceOnUse">
<stop stop-color="#EFEAEA"/>
<stop offset="0.0584" stop-color="#EAE8E8"/>
<stop offset="0.0892" stop-color="#E5E5E5"/>
<stop offset="0.6684" stop-color="#E9E7E7"/>
<stop offset="1" stop-color="#EFEAEA"/>
</linearGradient>
</defs>
</svg>
