<svg width="16" height="19" viewBox="0 0 16 19" fill="none" xmlns="http://www.w3.org/2000/svg">
<g clip-path="url(#clip0_1440_11150)">
<path d="M7.83333 7.58082C7.46444 7.58096 7.10387 7.69106 6.79721 7.8972C6.49055 8.10333 6.25158 8.39625 6.11051 8.73892C5.96943 9.08159 5.93259 9.45861 6.00465 9.82233C6.0767 10.186 6.25441 10.5201 6.5153 10.7823C6.7762 11.0445 7.10857 11.223 7.47038 11.2953C7.8322 11.3676 8.20722 11.3304 8.54802 11.1885C8.88882 11.0465 9.1801 10.8062 9.38503 10.4978C9.58996 10.1894 9.69934 9.82691 9.69934 9.45605C9.69897 8.9587 9.50224 8.48184 9.15235 8.13023C8.80247 7.77861 8.32805 7.58101 7.83333 7.58082ZM12.1945 6.13941C12.0995 5.89748 11.9561 5.67775 11.7732 5.49384C11.5902 5.30993 11.3717 5.16578 11.131 5.07031C10.3967 4.77887 8.64814 4.84426 7.83333 4.84426C7.01853 4.84426 5.27176 4.77641 4.53529 5.07031C4.29464 5.16578 4.07607 5.30993 3.89313 5.49384C3.7102 5.67775 3.5668 5.89748 3.47184 6.13941C3.18229 6.8777 3.24699 8.63727 3.24699 9.4557C3.24699 10.2741 3.18229 12.0316 3.47324 12.7723C3.5682 13.0143 3.7116 13.234 3.89453 13.4179C4.07747 13.6018 4.29604 13.746 4.53669 13.8414C5.27106 14.1329 7.01958 14.0675 7.83473 14.0675C8.64989 14.0675 10.396 14.1354 11.1324 13.8414C11.3731 13.746 11.5916 13.6018 11.7746 13.4179C11.9575 13.234 12.1009 13.0143 12.1959 12.7723C12.4879 12.0341 12.4207 10.2745 12.4207 9.45605C12.4207 8.63762 12.4879 6.88051 12.1959 6.13977L12.1945 6.13941ZM7.83333 12.3389C7.26618 12.3389 6.71177 12.1698 6.2402 11.853C5.76863 11.5363 5.40109 11.086 5.18405 10.5593C4.96701 10.0325 4.91023 9.45286 5.02087 8.89365C5.13152 8.33443 5.40463 7.82077 5.80566 7.4176C6.2067 7.01443 6.71765 6.73987 7.2739 6.62863C7.83015 6.5174 8.40672 6.57449 8.9307 6.79268C9.45468 7.01088 9.90253 7.38037 10.2176 7.85445C10.5327 8.32853 10.7009 8.88589 10.7009 9.45605C10.7014 9.83476 10.6275 10.2098 10.4835 10.5598C10.3396 10.9098 10.1284 11.2278 9.86203 11.4955C9.59566 11.7633 9.27936 11.9757 8.93124 12.1204C8.58313 12.2651 8.21004 12.3393 7.83333 12.3389ZM10.8191 7.1252C10.6867 7.12526 10.5573 7.08586 10.4471 7.01196C10.337 6.93807 10.2512 6.833 10.2005 6.71005C10.1497 6.5871 10.1364 6.4518 10.1622 6.32125C10.188 6.19069 10.2517 6.07076 10.3453 5.97662C10.4389 5.88248 10.5582 5.81836 10.688 5.79237C10.8179 5.76638 10.9525 5.77968 11.0748 5.8306C11.1971 5.88152 11.3017 5.96777 11.3752 6.07843C11.4488 6.18909 11.4881 6.3192 11.4881 6.4523C11.4884 6.54069 11.4714 6.62828 11.4381 6.71005C11.4047 6.79182 11.3556 6.86616 11.2936 6.92881C11.2315 6.99146 11.1578 7.04118 11.0766 7.07512C10.9955 7.10906 10.9084 7.12656 10.8205 7.1266L10.8191 7.1252ZM13.9881 1.58105H1.67857C1.23339 1.58105 0.806435 1.75884 0.491642 2.07531C0.176849 2.39178 0 2.821 0 3.26855L0 15.6436C0 16.0911 0.176849 16.5203 0.491642 16.8368C0.806435 17.1533 1.23339 17.3311 1.67857 17.3311H13.9881C14.4333 17.3311 14.8602 17.1533 15.175 16.8368C15.4898 16.5203 15.6667 16.0911 15.6667 15.6436V3.26855C15.6667 2.821 15.4898 2.39178 15.175 2.07531C14.8602 1.75884 14.4333 1.58105 13.9881 1.58105ZM13.3894 11.7764C13.3443 12.6774 13.1397 13.4758 12.4854 14.1318C11.8311 14.7879 11.0377 14.9977 10.1424 15.0406C9.21885 15.093 6.44991 15.093 5.52635 15.0406C4.63006 14.9953 3.83868 14.7893 3.18334 14.1318C2.528 13.4744 2.32202 12.6757 2.27936 11.7764C2.22725 10.8475 2.22725 8.06352 2.27936 7.13574C2.32447 6.23469 2.5266 5.43629 3.18334 4.78027C3.84008 4.12426 4.63356 3.91684 5.52635 3.87395C6.44991 3.82156 9.21885 3.82156 10.1424 3.87395C11.0387 3.9193 11.8325 4.12531 12.4854 4.78273C13.1383 5.44016 13.3467 6.23891 13.3894 7.13996C13.4415 8.06527 13.4415 10.8468 13.3894 11.7764Z" fill="#504B49"/>
</g>
<defs>
<clipPath id="clip0_1440_11150">
<rect width="15.6667" height="18" fill="white" transform="translate(0 0.456055)"/>
</clipPath>
</defs>
</svg>
