<svg width="24" height="25" viewBox="0 0 24 25" fill="none" xmlns="http://www.w3.org/2000/svg">
<path d="M12 21.4557C10.7369 20.3783 9.56619 19.1972 8.5 17.9247C6.9 16.0137 5 13.1677 5 10.4557C4.99931 9.07062 5.40951 7.7165 6.17869 6.56468C6.94788 5.41286 8.04147 4.51512 9.32107 3.98506C10.6007 3.455 12.0087 3.31645 13.3671 3.58695C14.7255 3.85745 15.9731 4.52484 16.952 5.50466C17.6038 6.15352 18.1203 6.9252 18.4719 7.77503C18.8234 8.62487 19.0029 9.53599 19 10.4557C19 13.1677 17.1 16.0137 15.5 17.9247C14.4338 19.1972 13.2631 20.3783 12 21.4557ZM12 7.45566C11.2044 7.45566 10.4413 7.77173 9.87868 8.33434C9.31607 8.89695 9 9.66001 9 10.4557C9 11.2513 9.31607 12.0144 9.87868 12.577C10.4413 13.1396 11.2044 13.4557 12 13.4557C12.7957 13.4557 13.5587 13.1396 14.1213 12.577C14.6839 12.0144 15 11.2513 15 10.4557C15 9.66001 14.6839 8.89695 14.1213 8.33434C13.5587 7.77173 12.7957 7.45566 12 7.45566Z" fill="#504B49"/>
</svg>
