<svg width="108" height="111" viewBox="0 0 108 111" fill="none" xmlns="http://www.w3.org/2000/svg">
<g filter="url(#filter0_dd_1440_10820)">
<rect x="14" y="10.75" width="80" height="80" rx="20" fill="white"/>
</g>
<rect x="14" y="10.75" width="80" height="80" rx="20" fill="white"/>
<mask id="mask0_1440_10820" style="mask-type:alpha" maskUnits="userSpaceOnUse" x="14" y="10" width="80" height="81">
<rect x="14" y="10.75" width="80" height="80" rx="20" fill="#D9D9D9"/>
</mask>
<g mask="url(#mask0_1440_10820)">
<path d="M295.48 -37.9833L283.094 -45.13L237.6 -18.7167H237.587C237.534 -18.6767 237.467 -18.65 237.414 -18.61C234.36 -16.85 229.387 -16.85 226.334 -18.61L180.934 -44.97C180.867 -45.01 180.814 -45.0367 180.76 -45.0767C170.894 -50.77 154.947 -50.7833 145.027 -45.1433L145.014 -45.1567L99.5203 -18.7433C99.467 -18.7033 99.4004 -18.6767 99.347 -18.6367C96.2937 -16.8767 91.3337 -16.8767 88.2803 -18.6233L46.467 -42.77C46.4137 -42.81 46.347 -42.8367 46.2937 -42.8767C36.387 -48.5967 20.3337 -48.5967 10.4403 -42.8767C7.38698 -41.1167 2.41365 -41.1167 -0.639679 -42.8767C-0.706346 -42.9167 -0.759686 -42.9433 -0.813019 -42.9833C-10.693 -48.57 -26.4797 -48.5567 -36.3197 -42.9433L-36.3463 -42.9567L-47.7463 -36.3833C-54.3463 -38.13 -61.9863 -38.13 -68.5863 -36.3833L-79.6663 -42.7833C-79.733 -42.8233 -79.7863 -42.85 -79.8397 -42.89C-79.8663 -42.9033 -79.893 -42.9167 -79.9197 -42.93L-79.9863 -42.97C-89.8663 -48.5967 -105.746 -48.5833 -115.613 -42.9433L-129.866 -34.7167C-129.92 -34.69 -129.973 -34.65 -130.026 -34.6233C-133.08 -32.8633 -138.053 -32.8633 -141.106 -34.6233L-318.933 -137.25L-331.333 -130.117L-153.506 -27.45L-153.4 -27.5033L-153.506 -27.4367C-143.733 -21.7967 -127.973 -21.73 -118.04 -27.2367L-90.7997 -11.5167L-92.373 -10.61L-269.44 91.6166L-111.706 182.657L-156.133 208.257L-143.733 215.39L-49.3463 161.003L-49.213 161.083L-34.9597 152.857L-20.7063 161.083L-6.57299 169.243L-6.49299 169.297L5.24033 176.07H5.25367C15.067 181.737 30.9337 181.763 40.8137 176.177L52.6003 169.39C55.6536 167.63 60.627 167.63 63.6804 169.39C63.747 169.43 63.8003 169.457 63.8536 169.497L109.347 195.91L121.734 188.763L76.2403 162.35H76.2537C76.187 162.31 76.1337 162.283 76.0803 162.243C66.187 156.537 50.1603 156.523 40.2537 162.23C40.2403 162.23 40.2403 162.243 40.227 162.243L40.2003 162.257L-5.61299 135.803L70.7337 91.8166H70.747C80.587 86.1366 80.6536 76.9633 70.9336 71.2433L56.387 62.8433L69.3737 55.3367L69.4537 55.2833L81.5203 48.31C84.4803 46.79 88.9603 46.8033 91.907 48.3367L103.814 55.2167L116.2 48.07L106.667 42.5766L207.147 -15.4367L213.96 -11.4767C223.867 -5.75668 239.92 -5.75668 249.814 -11.4767C249.88 -11.5167 249.934 -11.5434 249.987 -11.5834L295.48 -37.9833ZM-35.3863 -29.2233L-24.1064 -35.73L-24.093 -35.7167C-21.1063 -37.4367 -16.2797 -37.4767 -13.213 -35.8233C-13.1997 -35.81 -13.1063 -35.7433 -13.053 -35.7167C-3.14634 -29.9967 12.8803 -30.01 22.7737 -35.73L22.787 -35.7167C25.8403 -37.4767 30.8137 -37.4767 33.867 -35.7167C33.9337 -35.6767 33.987 -35.65 34.0403 -35.61H34.0537L63.907 -18.37L-10.2263 24.43L-24.133 16.4033L-24.1197 16.39C-27.1063 14.67 -27.173 11.8833 -24.3063 10.11C-24.2797 10.0967 -24.173 10.0433 -24.1197 10.0167C-14.2663 4.32333 -14.253 -4.87668 -24.013 -10.5967L-24.133 -10.6633C-24.133 -10.6633 -24.133 -10.6633 -24.1464 -10.6633L-35.413 -17.17C-32.373 -20.9967 -32.373 -25.41 -35.3863 -29.2233ZM-64.1997 -26.6767C-60.8797 -28.5967 -55.5063 -28.5967 -52.1863 -26.6767C-48.8663 -24.7567 -48.8663 -21.65 -52.1863 -19.7433C-55.5063 -17.8233 -60.8797 -17.8233 -64.1997 -19.7433C-67.5197 -21.65 -67.5197 -24.7567 -64.1997 -26.6767ZM-115.373 -28.7833L-103.346 -35.73H-103.333C-100.28 -37.49 -95.3063 -37.49 -92.253 -35.73C-92.1863 -35.69 -92.133 -35.6633 -92.0797 -35.6233H-92.0663L-80.9863 -29.2233H-80.973C-83.9863 -25.41 -83.9863 -20.9967 -80.973 -17.1833H-80.9863L-88.1463 -13.05L-115.373 -28.7833ZM37.507 163.803L28.3203 169.11C25.3737 170.643 20.8936 170.643 17.9336 169.137L5.86699 162.163L5.787 162.11L-8.373 153.937L-22.693 145.67L-22.5863 145.737L-8.333 137.51L-8.42634 137.457L-8.27965 137.363L37.507 163.803ZM58.547 78.4167C61.3337 80.15 61.307 82.8433 58.4937 84.5766L-109.066 181.137L-254.4 97.23L-79.893 -3.51668L-68.613 -10.0234C-62.013 -8.27669 -54.373 -8.27669 -47.773 -10.0234L-36.373 -3.45001C-33.453 -1.67668 -33.4797 1.12333 -36.493 2.87C-36.5597 2.91 -36.613 2.93665 -36.6797 2.97665C-46.3463 8.66998 -46.3197 17.7766 -36.6263 23.4566L-36.653 23.47L58.547 78.4167ZM103.96 41.07C94.0537 35.6966 78.4937 35.8033 68.8137 41.39H68.8003L57.067 48.1633L56.987 48.2167L44.0003 55.71L-10.2263 24.43L66.6137 -16.8367L75.8936 -11.4767H75.8803C85.787 -5.75668 101.84 -5.75668 111.734 -11.4767C111.8 -11.5167 111.854 -11.5434 111.907 -11.5834L157.28 -37.93L157.294 -37.9167C160.347 -39.6767 165.32 -39.6767 168.374 -37.9167C168.44 -37.8767 168.494 -37.85 168.547 -37.81H168.56L204.494 -16.9433L103.96 41.07Z" fill="#FFC400"/>
</g>
<path d="M54.8884 70.7497C56.5522 70.7497 57.9009 69.401 57.9009 67.7373C57.9009 66.0736 56.5522 64.7249 54.8884 64.7249C53.2247 64.7249 51.876 66.0736 51.876 67.7373C51.876 69.401 53.2247 70.7497 54.8884 70.7497Z" fill="#F46F3B"/>
<path d="M56.6773 25.3748L60.4968 27.5942C61.7003 28.2968 62.4517 29.7857 62.4587 31.9076C62.4726 36.1723 59.4741 41.3693 55.7589 43.5121L51.9395 41.2928C55.6476 39.15 58.6462 33.96 58.6392 29.6883C58.6322 27.5663 57.8878 26.0775 56.6773 25.3748Z" fill="#FF9900"/>
<path d="M55.7589 43.5059L51.9395 41.2865C55.6476 39.1437 58.6462 33.9537 58.6392 29.682C58.6322 27.56 57.8878 26.0712 56.6773 25.3685L60.4968 27.5879C61.7003 28.2905 62.4517 29.7794 62.4587 31.9013C62.4656 36.166 59.4671 41.3631 55.7589 43.5059Z" fill="#D83D01"/>
<path d="M50.9777 43.972L47.1582 41.7526C48.3827 42.4623 50.0733 42.3649 51.9378 41.2865L55.7572 43.5058C53.8858 44.5842 52.1952 44.6816 50.9777 43.972Z" fill="#FF9900"/>
<path d="M50.9777 43.972L47.1582 41.7526C48.3827 42.4623 50.0733 42.3649 51.9378 41.2865L55.7572 43.5058C53.8858 44.5842 52.1952 44.6816 50.9777 43.972Z" fill="#D83D01"/>
<path d="M60.8308 18.2652L64.6503 20.4845C62.3614 19.1557 59.1959 19.3436 55.6964 21.3611L51.877 19.1418C55.3764 17.1242 58.5419 16.9364 60.8308 18.2652Z" fill="#FF9900"/>
<path d="M55.6964 21.3611L51.877 19.1418C55.3764 17.1242 58.5419 16.9364 60.8308 18.2652L64.6503 20.4845C62.3614 19.1557 59.1889 19.3436 55.6964 21.3611Z" fill="#D83D01"/>
<path d="M55.8215 66.3389L52.0021 64.1196C51.369 63.3543 39.3539 48.8486 39.3331 40.8618C39.3122 32.875 44.9266 23.1558 51.8768 19.1415L55.6963 21.3609C48.7461 25.3752 43.1317 35.0943 43.1525 43.0811C43.1804 51.068 55.1884 65.5736 55.8215 66.3389Z" fill="#FF9900"/>
<path d="M55.8215 66.3389L52.0021 64.1196C51.369 63.3543 39.3539 48.8486 39.3331 40.8618C39.3122 32.875 44.9266 23.1558 51.8768 19.1415L55.6963 21.3609C48.7461 25.3752 43.1317 35.0943 43.1525 43.0811C43.1804 51.068 55.1884 65.5736 55.8215 66.3389Z" fill="#D83D01"/>
<path d="M55.6971 21.3611C62.6473 17.3469 68.2966 20.568 68.3174 28.5548C68.3383 36.5417 56.4485 64.8504 55.8224 66.3392C55.1893 65.5739 43.1742 51.0682 43.1534 43.0814C43.1325 35.0946 48.7469 25.3685 55.6971 21.3611ZM55.7598 43.5058C59.4679 41.363 62.4665 36.1729 62.4595 31.9012C62.4456 27.6365 59.4262 25.9181 55.718 28.0609C52.0098 30.2037 49.0113 35.4007 49.0183 39.6654C49.0322 43.9302 52.0446 45.6486 55.7598 43.5058Z" fill="#F46F3B"/>
<circle cx="16.2325" cy="11.9535" r="11.5841" fill="#F46F3B"/>
<path d="M12.8404 16.6716L12.8478 15.2865L17.5171 11.1013C17.8944 10.7687 18.15 10.451 18.2841 10.1481C18.4231 9.8453 18.4926 9.54245 18.4926 9.23961C18.4926 8.85734 18.4082 8.51478 18.2394 8.21194C18.0706 7.90413 17.8373 7.66087 17.5394 7.48214C17.2415 7.30342 16.899 7.21405 16.5117 7.21405C16.1146 7.21405 15.7596 7.30838 15.4468 7.49704C15.139 7.68073 14.8982 7.92648 14.7245 8.23428C14.5507 8.54209 14.4663 8.87472 14.4713 9.23217H12.8776C12.8776 8.53712 13.034 7.92896 13.3468 7.40767C13.6645 6.88143 14.0989 6.47185 14.65 6.17893C15.2011 5.88106 15.8316 5.73212 16.5415 5.73212C17.2167 5.73212 17.8224 5.88602 18.3586 6.19383C18.8947 6.49667 19.3167 6.9137 19.6245 7.44491C19.9373 7.97612 20.0937 8.5818 20.0937 9.26195C20.0937 9.75345 20.0291 10.1705 19.9001 10.513C19.771 10.8556 19.5774 11.1733 19.3192 11.4662C19.061 11.7592 18.7383 12.0769 18.3511 12.4194L14.7468 15.6365L14.5755 15.1897H20.0937V16.6716H12.8404Z" fill="white"/>
<defs>
<filter id="filter0_dd_1440_10820" x="0.761049" y="4.13052" width="106.478" height="106.478" filterUnits="userSpaceOnUse" color-interpolation-filters="sRGB">
<feFlood flood-opacity="0" result="BackgroundImageFix"/>
<feColorMatrix in="SourceAlpha" type="matrix" values="0 0 0 0 0 0 0 0 0 0 0 0 0 0 0 0 0 0 127 0" result="hardAlpha"/>
<feOffset dy="6.61948"/>
<feGaussianBlur stdDeviation="6.61948"/>
<feColorMatrix type="matrix" values="0 0 0 0 0 0 0 0 0 0 0 0 0 0 0 0 0 0 0.08 0"/>
<feBlend mode="normal" in2="BackgroundImageFix" result="effect1_dropShadow_1440_10820"/>
<feColorMatrix in="SourceAlpha" type="matrix" values="0 0 0 0 0 0 0 0 0 0 0 0 0 0 0 0 0 0 127 0" result="hardAlpha"/>
<feOffset/>
<feGaussianBlur stdDeviation="1.65487"/>
<feColorMatrix type="matrix" values="0 0 0 0 0 0 0 0 0 0 0 0 0 0 0 0 0 0 0.04 0"/>
<feBlend mode="normal" in2="effect1_dropShadow_1440_10820" result="effect2_dropShadow_1440_10820"/>
<feBlend mode="normal" in="SourceGraphic" in2="effect2_dropShadow_1440_10820" result="shape"/>
</filter>
</defs>
</svg>
