<svg width="24" height="25" viewBox="0 0 24 25" fill="none" xmlns="http://www.w3.org/2000/svg">
<path d="M18.997 20.4561C10.466 20.4681 3.99101 13.9161 4.00001 5.45905C4.00001 4.90605 4.44801 4.45605 5.00001 4.45605H7.64001C8.13501 4.45605 8.55601 4.82005 8.62901 5.31005C8.80311 6.48511 9.14493 7.6291 9.64401 8.70706L9.74701 8.92905C9.8162 9.07844 9.83108 9.2473 9.78909 9.40649C9.7471 9.56568 9.65088 9.70522 9.51701 9.80105C8.69901 10.3851 8.38701 11.5601 9.02401 12.4761C9.82599 13.6294 10.827 14.6307 11.98 15.4331C12.897 16.0691 14.072 15.7571 14.655 14.9401C14.7507 14.8058 14.8904 14.7092 15.0498 14.667C15.2092 14.6248 15.3784 14.6397 15.528 14.7091L15.749 14.8111C16.827 15.3111 17.971 15.6531 19.146 15.8271C19.636 15.9001 20 16.3211 20 16.8171V19.4561C20 19.5875 19.9741 19.7176 19.9238 19.839C19.8735 19.9604 19.7997 20.0706 19.7068 20.1635C19.6138 20.2564 19.5034 20.33 19.382 20.3802C19.2606 20.4304 19.1304 20.4562 18.999 20.4561H18.997Z" fill="#504B49"/>
</svg>
