<svg width="110" height="110" viewBox="0 0 110 110" fill="none" xmlns="http://www.w3.org/2000/svg">
<g filter="url(#filter0_dd_1440_10834)">
<rect x="13.6133" y="7.32104" width="82.7434" height="82.7434" rx="24.823" fill="white"/>
</g>
<path d="M39.2499 45.2112L39.2441 57.2117C39.2441 57.8517 39.6899 58.6232 40.2442 58.9432L42.3243 60.1432C42.6043 60.3032 42.8557 60.3204 43.0386 60.2175C43.2214 60.1147 43.5129 59.8918 43.5129 59.5718L44.3129 47.0913L39.2499 45.2112Z" fill="#B6B2AE"/>
<path d="M43.3352 47.5713L43.3295 59.5717C43.3295 59.886 43.2152 60.1089 43.0381 60.2175L45.8039 58.6117C45.9811 58.5089 46.0953 58.286 46.0953 57.966L46.1011 45.9655L43.3352 47.5713Z" fill="#CFCBC7"/>
<path d="M44.0039 47.9942L45.5354 47.1084L46.7869 50.1314L45.2611 51.0171L44.0039 47.9942Z" fill="#F46F3B"/>
<path d="M44.0038 47.9941L45.2609 51.0171L43.998 51.08L44.0038 47.9941Z" fill="#D9460C"/>
<path d="M69.6396 36.2166L57.2563 38.4509C59.2107 38.1195 60.6336 39.4281 60.6793 41.9254C60.7136 43.7597 59.9992 45.8455 58.8506 47.6056C58.0392 48.8513 57.0163 49.9428 55.8905 50.6686C55.8162 50.7143 55.7419 50.76 55.6677 50.8057C53.3933 52.1657 51.4332 51.6229 50.7246 49.6857L54.679 61.509C56.2505 65.8234 60.6621 67.2578 65.7138 64.2405C65.8795 64.1434 66.2795 64.0119 66.4395 63.9033C68.9424 62.2861 71.4283 59.846 73.2283 57.0745C75.7713 53.1544 77.5199 48.1713 77.4456 44.0969C77.3542 38.5424 73.9884 35.4794 69.6396 36.2166Z" fill="url(#paint0_linear_1440_10834)"/>
<path d="M50.0727 31.0792C48.8498 30.3706 47.1469 30.4906 45.2839 31.6049C42.1352 33.485 39.5466 37.5823 38.9694 41.3367C38.8837 41.9082 38.838 42.4682 38.8494 43.0168C38.8837 45.0226 39.6094 46.4284 40.7638 47.1027C41.1581 47.3084 41.9752 47.7427 43.261 47.6284C44.5182 47.5198 45.5982 46.9598 46.1297 46.6341C49.7069 44.4454 52.3699 39.7138 52.3242 35.6337C52.2728 34.645 52.1642 32.3478 50.0727 31.0792Z" fill="#F46F3B"/>
<path d="M44.4043 27.7934C44.3072 27.7363 44.1986 27.6848 44.0957 27.6391C43.0443 27.1248 42.0042 26.8619 40.387 27.0734C39.1927 27.2277 37.6212 27.9477 36.5697 28.822C36.0383 29.262 34.4096 30.6106 33.2782 32.9079C32.661 34.1594 31.941 36.0737 32.0038 38.0852C32.101 41.3539 33.7411 43.0054 35.0954 43.8112L40.7642 47.097C39.6099 46.4284 38.8841 45.0169 38.8498 43.0111C38.7755 38.8795 41.6556 33.7708 45.2844 31.5993C47.153 30.4849 48.8559 30.3649 50.0731 31.0735L44.4043 27.7934Z" fill="url(#paint1_linear_1440_10834)"/>
<path d="M50.3019 32.5422C49.2333 31.925 47.7418 32.0279 46.1132 33.005C42.9359 34.9023 40.4158 39.3767 40.4787 42.994C40.513 44.7484 41.1473 45.9827 42.153 46.5656L49.559 50.8857L57.7251 36.8395L50.3019 32.5422Z" fill="url(#paint2_linear_1440_10834)"/>
<path d="M66.2005 51.1707C68.0247 48.0112 68.0257 44.5967 66.2027 43.5442C64.3797 42.4916 61.4231 44.1996 59.5989 47.3591C57.7747 50.5186 57.7737 53.9331 59.5967 54.9857C61.4197 56.0382 64.3763 54.3302 66.2005 51.1707Z" fill="#F46F3B"/>
<path d="M60.5537 50.6228C60.5537 52.12 61.6052 52.7315 62.9024 51.9829C64.1996 51.2343 65.251 49.4114 65.251 47.9084C65.251 46.4112 64.1996 45.7998 62.9024 46.5484C61.6052 47.3027 60.5537 49.1256 60.5537 50.6228Z" fill="#D9460C"/>
<path d="M66.2401 43.5654L59.6741 39.7767C58.8284 39.2681 57.6455 39.331 56.3426 40.0853C53.7653 41.5768 51.6738 45.1941 51.6738 48.177C51.6738 49.6457 52.1824 50.6857 53.011 51.1829L59.577 54.9716C58.7484 54.4744 58.2398 53.4344 58.2398 51.9658C58.2398 48.9885 60.3313 45.3655 62.9085 43.874C64.2115 43.1197 65.3886 43.0569 66.2401 43.5654Z" fill="#D9460C"/>
<path d="M48.2279 49.2514L52.9938 61.5147C52.5423 60.3604 52.2852 58.9832 52.2566 57.4117C52.1195 49.7542 57.4568 40.291 64.1771 36.2737C65.7486 35.3366 67.2572 34.7765 68.6458 34.5708L55.6339 36.5023C54.9767 36.5995 54.2624 36.8623 53.5195 37.3081C50.3365 39.211 47.8107 43.6912 47.8793 47.3142C47.8964 48.0513 48.0164 48.7028 48.2279 49.2514Z" fill="url(#paint3_linear_1440_10834)"/>
<path d="M65.9768 64.9662C59.148 69.0464 53.4964 66.0463 53.3592 58.2688C53.2163 50.4914 58.6394 40.8796 65.4682 36.7995C72.2971 32.7193 77.9487 35.7194 78.0859 43.4969C78.2287 51.2743 72.8057 60.8918 65.9768 64.9662ZM77.0858 44.0969C76.9544 36.948 71.7599 34.1879 65.4854 37.9424C59.2051 41.6911 54.2221 50.5314 54.3535 57.6802C54.485 64.8291 59.6795 67.5892 65.954 63.8348C72.2342 60.0803 77.2173 51.2457 77.0858 44.0969Z" fill="#F46F3B"/>
<path d="M65.9078 65.1205C70.2623 62.4576 73.0909 58.4974 74.6967 55.6459C76.3196 52.7715 78.2397 48.3027 78.1826 43.3483C78.1826 43.3997 78.1483 43.4568 78.0797 43.4968C78.2226 51.2743 72.7995 60.8861 65.9707 64.9662C59.1419 69.0464 53.4902 66.0463 53.3531 58.2688C53.2102 50.4914 58.6333 40.8796 65.4621 36.7994C72.2909 32.7193 77.9426 35.7194 78.0797 43.4968C78.1483 43.4568 78.1826 43.3997 78.1826 43.3483C78.0969 41.5996 77.8968 37.4966 74.411 35.3765C72.0681 34.0165 68.7994 34.2451 65.2164 36.3823C58.2561 40.5424 52.7245 50.3428 52.873 58.2745C52.9416 62.1261 54.336 64.8234 56.5475 66.1091C57.1018 66.4006 58.5761 67.1835 60.6733 66.9606C62.462 66.7777 64.222 66.1549 65.9078 65.1205Z" fill="url(#paint4_radial_1440_10834)"/>
<path d="M73.6056 34.908C73.2285 34.6908 72.8227 34.5137 72.3998 34.3823C72.3827 34.3765 72.3713 34.3708 72.3541 34.3651C72.2856 34.3423 72.217 34.3194 72.1484 34.3022C70.8398 33.9137 69.1426 33.8394 66.7253 34.6965C65.8453 35.0051 64.3824 35.7309 63.2909 36.508C61.2623 37.9538 60.3937 38.8681 59.3879 39.9253C55.5592 43.9541 51.7762 51.3429 51.9648 57.6689C52.0276 59.7375 52.3248 61.109 53.0734 62.7148C53.3648 63.3434 53.7363 63.8634 54.1077 64.2805C53.7248 63.8291 53.3934 63.2919 53.1077 62.6976C53.4848 63.4805 53.9591 64.1491 54.5134 64.6977C54.3763 64.572 54.2392 64.4348 54.102 64.2805C54.5535 64.812 55.062 65.2463 55.6221 65.572C55.5935 65.5492 55.5478 65.5206 55.5078 65.4977C55.5821 65.5435 55.6564 65.5949 55.7306 65.6406L56.5364 66.1092C54.3249 64.8234 52.9305 62.1205 52.862 58.2746C52.7191 50.3429 58.245 40.5425 65.2053 36.3823C68.7883 34.2394 72.0513 34.0108 74.3999 35.3766L73.6056 34.908Z" fill="url(#paint5_linear_1440_10834)"/>
<path d="M37.2782 42.9025L33.6838 40.8282C33.2837 40.5939 32.958 40.0796 32.958 39.6796C32.958 39.2795 33.2837 39.1367 33.6838 39.371L37.2782 41.4453C37.6782 41.6796 38.0039 42.1939 38.0039 42.594C38.0039 42.994 37.6782 43.1368 37.2782 42.9025Z" fill="#D9460C"/>
<path d="M49.9074 30.9821C49.7989 30.9192 49.6331 30.8335 49.416 30.7535C48.976 30.5935 48.2845 30.4735 47.4845 30.6107C46.6845 30.7478 45.7758 31.0793 44.9301 31.6336C44.7187 31.7593 44.5072 31.9079 44.2958 32.0679C44.0786 32.2222 43.8786 32.3879 43.6786 32.5593C43.2729 32.9022 42.89 33.2794 42.5243 33.6737C41.81 34.4794 41.1871 35.3594 40.6842 36.2337C40.4328 36.668 40.2156 37.1023 40.0328 37.5252C39.8499 37.9481 39.6842 38.3481 39.5585 38.731C39.4213 39.1081 39.3299 39.4624 39.2499 39.7767C39.1699 40.091 39.1242 40.371 39.0727 40.5996C39.0099 41.0625 38.9756 41.3254 38.9756 41.3254C38.9756 41.3254 39.0384 41.0682 39.147 40.6168C39.2727 40.171 39.4613 39.5367 39.7642 38.8053C39.9071 38.4338 40.0899 38.0452 40.2899 37.6452C40.4899 37.2395 40.7299 36.8281 40.9757 36.3995C41.4785 35.5537 42.1014 34.7023 42.81 33.9308C43.1586 33.5422 43.5243 33.1651 43.9129 32.8279C44.1072 32.6565 44.3015 32.4907 44.5015 32.3422C44.6958 32.1879 44.9015 32.0393 45.113 31.9079C45.9244 31.3593 46.7645 30.9764 47.5302 30.8164C48.2959 30.6507 48.9588 30.6907 49.4046 30.8164C49.6274 30.8735 49.7989 30.9364 49.9131 30.9878C50.0274 31.0393 50.0846 31.0678 50.0846 31.0678C50.0846 31.0678 50.016 31.045 49.9074 30.9821Z" fill="url(#paint6_radial_1440_10834)"/>
<circle cx="20.2325" cy="14.7678" r="11.5841" fill="#F46F3B"/>
<path d="M20.1394 20.5221C19.6082 20.5221 19.1092 20.4228 18.6425 20.2242C18.1759 20.0207 17.7713 19.7327 17.4287 19.3604C17.0911 18.988 16.8454 18.5487 16.6915 18.0423L18.1957 17.6253C18.3397 18.087 18.5904 18.4419 18.9479 18.6902C19.3053 18.9334 19.7025 19.0526 20.1394 19.0476C20.5316 19.0427 20.8766 18.9508 21.1745 18.7721C21.4724 18.5934 21.7057 18.3526 21.8745 18.0497C22.0433 17.7419 22.1277 17.3894 22.1277 16.9923C22.1277 16.3965 21.9415 15.905 21.5692 15.5178C21.2018 15.1305 20.7202 14.9369 20.1245 14.9369C19.9557 14.9369 19.7819 14.9618 19.6032 15.0114C19.4294 15.061 19.2656 15.1256 19.1117 15.205L18.3819 13.9763L22.1649 10.6326L22.3288 11.0794H17.1159V9.59749H23.565V11.0794L20.4224 14.1029L20.4075 13.5965C21.0827 13.5965 21.6685 13.7479 22.1649 14.0507C22.6614 14.3486 23.0437 14.7557 23.3118 15.272C23.5848 15.7834 23.7213 16.3568 23.7213 16.9923C23.7213 17.6774 23.56 18.2856 23.2373 18.8168C22.9196 19.348 22.4901 19.765 21.949 20.0678C21.4128 20.3707 20.8096 20.5221 20.1394 20.5221Z" fill="white"/>
<defs>
<filter id="filter0_dd_1440_10834" x="0.374331" y="0.70157" width="109.221" height="109.221" filterUnits="userSpaceOnUse" color-interpolation-filters="sRGB">
<feFlood flood-opacity="0" result="BackgroundImageFix"/>
<feColorMatrix in="SourceAlpha" type="matrix" values="0 0 0 0 0 0 0 0 0 0 0 0 0 0 0 0 0 0 127 0" result="hardAlpha"/>
<feOffset dy="6.61948"/>
<feGaussianBlur stdDeviation="6.61948"/>
<feColorMatrix type="matrix" values="0 0 0 0 0 0 0 0 0 0 0 0 0 0 0 0 0 0 0.08 0"/>
<feBlend mode="normal" in2="BackgroundImageFix" result="effect1_dropShadow_1440_10834"/>
<feColorMatrix in="SourceAlpha" type="matrix" values="0 0 0 0 0 0 0 0 0 0 0 0 0 0 0 0 0 0 127 0" result="hardAlpha"/>
<feOffset/>
<feGaussianBlur stdDeviation="1.65487"/>
<feColorMatrix type="matrix" values="0 0 0 0 0 0 0 0 0 0 0 0 0 0 0 0 0 0 0.04 0"/>
<feBlend mode="normal" in2="effect1_dropShadow_1440_10834" result="effect2_dropShadow_1440_10834"/>
<feBlend mode="normal" in="SourceGraphic" in2="effect2_dropShadow_1440_10834" result="shape"/>
</filter>
<linearGradient id="paint0_linear_1440_10834" x1="57.4134" y1="64.017" x2="70.184" y2="35.4312" gradientUnits="userSpaceOnUse">
<stop stop-color="#FFFAF5"/>
<stop offset="0.2485" stop-color="#EAE5E0"/>
<stop offset="0.7402" stop-color="#C4C0BC"/>
<stop offset="1" stop-color="#B6B2AE"/>
</linearGradient>
<linearGradient id="paint1_linear_1440_10834" x1="44.1652" y1="27.6549" x2="34.8963" y2="43.7091" gradientUnits="userSpaceOnUse">
<stop stop-color="#F46F3B"/>
<stop offset="0.2598" stop-color="#F83F3F"/>
<stop offset="0.647" stop-color="#E3302E"/>
<stop offset="1" stop-color="#D9460C"/>
</linearGradient>
<linearGradient id="paint2_linear_1440_10834" x1="51.9712" y1="33.5079" x2="43.8418" y2="47.5883" gradientUnits="userSpaceOnUse">
<stop stop-color="#FFFAF5"/>
<stop offset="0.2485" stop-color="#EAE5E0"/>
<stop offset="0.7402" stop-color="#C4C0BC"/>
<stop offset="1" stop-color="#B6B2AE"/>
</linearGradient>
<linearGradient id="paint3_linear_1440_10834" x1="50.3537" y1="52.8952" x2="63.1607" y2="33.4837" gradientUnits="userSpaceOnUse">
<stop stop-color="#B6B2AE"/>
<stop offset="0.2755" stop-color="#C4C0BC"/>
<stop offset="0.7969" stop-color="#EAE5E0"/>
<stop offset="1" stop-color="#FAF5F0"/>
</linearGradient>
<radialGradient id="paint4_radial_1440_10834" cx="0" cy="0" r="1" gradientUnits="userSpaceOnUse" gradientTransform="translate(64.991 36.8536) scale(24.9074 24.9074)">
<stop stop-color="#FF5E5E"/>
<stop offset="1" stop-color="#E23A37"/>
</radialGradient>
<linearGradient id="paint5_linear_1440_10834" x1="69.467" y1="32.5196" x2="51.6907" y2="63.3092" gradientUnits="userSpaceOnUse">
<stop stop-color="#FF4545"/>
<stop offset="0.2598" stop-color="#F83F3F"/>
<stop offset="0.647" stop-color="#E3302E"/>
<stop offset="1" stop-color="#CB1E19"/>
</linearGradient>
<radialGradient id="paint6_radial_1440_10834" cx="0" cy="0" r="1" gradientUnits="userSpaceOnUse" gradientTransform="translate(44.6936 31.7159) scale(11.1875 11.1875)">
<stop stop-color="#FF5E5E"/>
<stop offset="1" stop-color="#E23A37"/>
</radialGradient>
</defs>
</svg>
