<svg width="112" height="21" viewBox="0 0 112 21" fill="none" xmlns="http://www.w3.org/2000/svg">
<g clip-path="url(#clip0_1440_11176)">
<path d="M19.3575 8.46116H12.3078L10.1221 1.62695L7.93642 8.46116H0.886719L6.58189 12.6787L4.42696 19.4821L10.1221 15.2646L15.8173 19.4821L13.6316 12.6479L19.3575 8.46116Z" fill="#FFCE31"/>
</g>
<g clip-path="url(#clip1_1440_11176)">
<path d="M42.3419 8.46116H35.2922L33.1065 1.62695L30.9208 8.46116H23.8711L29.5663 12.6787L27.4113 19.4821L33.1065 15.2646L38.8017 19.4821L36.616 12.6479L42.3419 8.46116Z" fill="#FFCE31"/>
</g>
<g clip-path="url(#clip2_1440_11176)">
<path d="M65.3302 8.46116H58.2805L56.0948 1.62695L53.9091 8.46116H46.8594L52.5545 12.6787L50.3996 19.4821L56.0948 15.2646L61.79 19.4821L59.6042 12.6479L65.3302 8.46116Z" fill="#FFCE31"/>
</g>
<g clip-path="url(#clip3_1440_11176)">
<path d="M88.3126 8.46116H81.2629L79.0772 1.62695L76.8915 8.46116H69.8418L75.537 12.6787L73.382 19.4821L79.0772 15.2646L84.7724 19.4821L82.5867 12.6479L88.3126 8.46116Z" fill="#FFCE31"/>
</g>
<g clip-path="url(#clip4_1440_11176)">
<path d="M111.299 8.46116H104.249L102.064 1.62695L99.8778 8.46116H92.8281L98.5233 12.6787L96.3684 19.4821L102.064 15.2646L107.759 19.4821L105.573 12.6479L111.299 8.46116Z" fill="#FFCE31"/>
</g>
<defs>
<clipPath id="clip0_1440_11176">
<rect width="19.7022" height="19.7022" fill="white" transform="translate(0.269531 0.703369)"/>
</clipPath>
<clipPath id="clip1_1440_11176">
<rect width="19.7022" height="19.7022" fill="white" transform="translate(23.2559 0.703369)"/>
</clipPath>
<clipPath id="clip2_1440_11176">
<rect width="19.7022" height="19.7022" fill="white" transform="translate(46.2422 0.703369)"/>
</clipPath>
<clipPath id="clip3_1440_11176">
<rect width="19.7022" height="19.7022" fill="white" transform="translate(69.2266 0.703369)"/>
</clipPath>
<clipPath id="clip4_1440_11176">
<rect width="19.7022" height="19.7022" fill="white" transform="translate(92.2129 0.703369)"/>
</clipPath>
</defs>
</svg>
