<svg width="18" height="19" viewBox="0 0 18 19" fill="none" xmlns="http://www.w3.org/2000/svg">
<path d="M16.0714 0.456055H1.92857C0.863839 0.456055 0 1.31989 0 2.38463V16.5275C0 17.5922 0.863839 18.4561 1.92857 18.4561H16.0714C17.1362 18.4561 18 17.5922 18 16.5275V2.38463C18 1.31989 17.1362 0.456055 16.0714 0.456055ZM14.1067 6.83641C14.1147 6.94891 14.1147 7.06543 14.1147 7.17793C14.1147 10.6614 11.4629 14.6753 6.61741 14.6753C5.12277 14.6753 3.73661 14.2413 2.57143 13.494C2.78437 13.5181 2.98929 13.5261 3.20625 13.5261C4.43973 13.5261 5.57277 13.1083 6.47679 12.4011C5.31964 12.377 4.34732 11.6177 4.01384 10.573C4.41964 10.6333 4.78527 10.6333 5.20312 10.5248C3.99777 10.2797 3.09375 9.219 3.09375 7.9373V7.90516C3.4433 8.10204 3.85312 8.22257 4.28304 8.23864C3.9216 7.99823 3.62531 7.67207 3.42059 7.28929C3.21588 6.9065 3.10911 6.47898 3.10982 6.04489C3.10982 5.55472 3.23839 5.10472 3.46741 4.71498C4.76518 6.31409 6.71384 7.35873 8.89955 7.47123C8.52589 5.68329 9.86384 4.23284 11.471 4.23284C12.2304 4.23284 12.9134 4.55025 13.3955 5.06454C13.9902 4.95204 14.5607 4.73105 15.067 4.42972C14.8701 5.04043 14.4563 5.55472 13.9098 5.88016C14.4402 5.82391 14.9545 5.67525 15.4286 5.47034C15.071 5.99668 14.621 6.46275 14.1067 6.83641Z" fill="#504B49"/>
</svg>
